**ABCDEFGHIJKLMNOPQRSTUVWXYZabcdefghijklmnopqrstuvwxyz**************************
**PARASOLID !"#$%&'()*+,-./:;<=>?@[\]^_`{|}~0123456789**************************
**PART1;
MC=;
MC_MODEL=;
MC_ID=;
OS=;
OS_RELEASE=;
FRU=;
APPL=CT CoreTechnologie 3D Evolution;
SITE=unknown;
USER=;
FORMAT=text;
GUISE=transmit;
KEY=MFM_0205_03_2;
FILE=D:\inetpub\wwwroot\ASP_NET\IGUS_CCCATALOG_DE\tmp\Catalog\20231022-100050-1412-fa0d4912cba342269acb2d2b52b91315\MFM_0205_03_2.x_t;
DATE=22-Oct-2023;
**PART2;
SCH=SCH_900161_9008;
USFLD_SIZE=0;
**PART3;
**END_OF_HEADER*****************************************************************
T50 : TRANSMIT FILE created by modeller version 90016115 SCH_900276_90080 10 1 1
 4 2 0 0 0 0 0 1e3 1e-8 0 0 0 1 0 1 129 70 2 0 1 0 0 4 2 20 8 3 3 1 T74 20 3 2 0
 16 130 0 0 0 0 0 0 0 0 0 0 0 0 0 0 0 0 0 0 81 1 4 4 6 1 8 0 0 130 5 84 24 5 202
3_10_22_10_00_51_015680 1 6 0 7 8017 0 0 0 0 0 0 0 0 TTTTTTTTTTTTT3 79 13 7 SDL/
TYSA_NAME81 2 8 8 11 1 13 4 0 13 9 10 84 18 9 originating system84 1 10  80 2 11
 0 12 9000 0 0 0 0 3 5 0 0 TTTTTTTTTTTTT3 3 79 15 12 STRING_METADATA81 2 13 13 1
1 1 16 8 8 16 14 15 84 10 14 PRODUCT ID84 24 15 2023_10_22_10_00_51_015681 2 16
 16 11 1 0 13 13 0 17 18 84 19 17 PRODUCT DESCRIPTION84 10 18 PART--DESC100 19 1
9 129 0 0 1.0 0.0 0.0 0.0 1.0 0.0 0.0 0.0 1.0 0.0 0.0 0.0 1.0 0 ?12 20 127 127 2
1 0 0 0 0 1e3 1e-8 129 0 0 1 0 1 123 117 101 0 126 102 0 70 21 0 20 0 0 4 3 20 8
 22 22 1 T74 20 22 3 0 119 127 121 0 0 0 0 0 0 0 0 0 0 0 0 0 0 0 0 0 31 23 23 0
 24 0 27 0 -0.0 0.0 0.0 0.0 0.0 -1.0 1.0 0.0 0.0 0.001 16 24 24 0 ?45 28 0 23 0
 0 20 17 25 26 25 25 0 45 24 0 0 -15 26 26 0 25 32 30 31 27 27 0 28 23 41 0 +0.0
 0.0 0.003 0.0 0.0 1.0 -1.0 0.0 0.0 0.001 16 28 28 0 ?29 42 24 27 0 0 20 17 29 3
0 29 29 0 57 28 0 0 +15 30 30 0 29 32 0 51 31 31 0 32 0 47 0 +0.0 0.0 0.0015 0.0
 0.0 1.0 0.001 -1.0 0.0 0.0 14 32 32 33 ?48 0 26 123 31 -0 0 48 0 125 81 1 33 33
 35 32 37 0 0 49 34 83 3 34 0.235294117647059 0.235294117647059 0.23529411764705
9 80 1 35 0 36 8001 0 0 0 0 3 5 0 0 FFFFTFTFFFFFF2 79 15 36 SDL/TYSA_COLOUR81 1
 37 37 39 32 0 33 0 51 38 82 1 38 6 80 1 39 0 40 9000 0 0 0 0 3 5 0 0 TTTTTTTTTT
TTT1 79 10 40 CTEntityId31 41 41 0 42 27 53 0 -0.0 0.0 0.0 0.0 0.0 -1.0 -1.0 0.0
 0.0 0.004 16 42 42 0 ?65 54 28 41 0 0 20 17 43 44 43 43 0 65 42 0 0 -15 44 44 0
 43 48 46 17 45 46 45 45 0 25 24 0 0 +15 46 46 0 45 48 0 50 47 47 0 48 31 59 0 +
0.004 -0.0041070229942 0.0 0.0 0.0 -1.0 -1.0 0.0 0.0 14 48 48 49 ?60 32 44 123 4
7 +0 0 60 32 125 81 1 49 49 35 48 51 0 33 61 50 83 3 50 0.235294117647059 0.2352
94117647059 0.235294117647059 81 1 51 51 39 48 0 49 37 63 52 82 1 52 160 31 53 5
3 0 54 41 67 0 +0.0 0.0 0.003 0.0 0.0 1.0 1.0 0.0 0.0 0.0023267949192 16 54 54 0
 ?55 68 42 53 0 0 20 17 55 56 55 55 0 81 54 0 0 +15 56 56 0 55 60 58 17 57 58 57
 57 0 29 28 0 0 -15 58 58 0 57 60 0 50 59 59 0 60 47 71 0 +-0.0023267949192 -0.0
02389050058985 0.003 0.0 0.0 1.0 1.0 0.0 0.0 14 60 60 61 ?72 48 56 123 59 +0 0 7
2 48 125 81 1 61 61 35 60 63 0 49 73 62 83 3 62 0.235294117647059 0.235294117647
059 0.235294117647059 81 1 63 63 39 60 0 61 51 75 64 82 1 64 141 17 65 66 65 65
 0 43 42 0 0 +15 66 66 0 65 72 70 31 67 67 0 68 53 77 0 -0.0 0.0 0.0015 0.0 0.0
 -1.0 -1.0 0.0 0.0 0.004 16 68 68 0 ?89 78 54 67 0 0 20 17 69 70 69 69 0 89 68 0
 0 -15 70 70 0 69 72 0 51 71 71 0 72 59 83 0 +0.0 0.0 0.00075 0.0 0.0 1.0 0.004
 1.0 0.0 0.0 14 72 72 73 ?84 60 66 123 71 +0 0 84 60 125 81 1 73 73 35 72 75 0 6
1 85 74 83 3 74 0.235294117647059 0.235294117647059 0.235294117647059 81 1 75 75
 39 72 0 73 63 87 76 82 1 76 76 31 77 77 0 78 67 91 0 +0.0 0.0 0.0027 0.0 0.0 1.
0 1.0 0.0 0.0 0.0025 16 78 78 0 ?79 92 68 77 0 0 20 17 79 80 79 79 0 105 78 0 0
 +15 80 80 0 79 84 82 17 81 82 81 81 0 55 54 0 0 -15 82 82 0 81 84 0 52 83 83 0
 84 71 95 0 +0.0 0.0 0.0027 0.0 0.0 -1.0 0.0025 0.500000000093341 0.866025403730
549 -1.0 0.0 0.0 14 84 84 85 ?96 72 80 123 83 +0 0 96 72 125 81 1 85 85 35 84 87
 0 73 97 86 83 3 86 0.235294117647059 0.235294117647059 0.235294117647059 81 1 8
7 87 39 84 0 85 75 99 88 82 1 88 25 17 89 90 89 89 0 69 68 0 0 +15 90 90 0 89 96
 94 31 91 91 0 92 77 101 0 -0.0 0.0 0.0015 0.0 0.0 -1.0 -1.0 0.0 0.0 0.003 16 92
 92 0 ?115 102 78 91 0 0 20 17 93 94 93 93 0 115 92 0 0 -15 94 94 0 93 96 0 50 9
5 95 0 96 83 107 0 +-0.004 -0.0041070229942 0.0015 0.0 0.0 1.0 1.0 0.0 0.0 14 96
 96 97 ?108 84 90 123 95 +0 0 108 84 125 81 1 97 97 35 96 99 0 85 109 98 83 3 98
 0.235294117647059 0.235294117647059 0.235294117647059 81 1 99 99 39 96 0 97 87
 111 100 82 1 100 106 31 101 101 0 102 91 0 0 +0.0 0.0 0.002 0.0 0.0 1.0 1.0 0.0
 0.0 0.0025 16 102 102 0 ?103 0 92 101 0 0 20 17 103 104 103 103 0 113 102 0 0 +
15 104 104 0 103 108 106 17 105 106 105 105 0 79 78 0 0 -15 106 106 0 105 108 0
 51 107 107 0 108 95 117 0 +0.0 0.0 0.00235 0.0 0.0 1.0 0.0025 1.0 0.0 0.0 14 10
8 108 109 ?118 96 104 123 107 +0 0 118 96 125 81 1 109 109 35 108 111 0 97 119 1
10 83 3 110 0.235294117647059 0.235294117647059 0.235294117647059 81 1 111 111 3
9 108 0 109 99 121 112 82 1 112 44 17 113 114 113 113 0 103 102 0 0 -15 114 114
 0 113 118 116 17 115 116 115 115 0 93 92 0 0 +15 116 116 0 115 118 0 54 117 117
 0 118 107 0 0 +0.0 0.0 0.002 0.0 0.0 1.0 0.003 0.0005 1.0 0.0 0.0 14 118 118 11
9 ?0 108 114 123 117 -0 0 0 108 125 81 1 119 119 35 118 121 0 109 0 120 83 3 120
 0.235294117647059 0.235294117647059 0.235294117647059 81 1 121 121 39 118 0 119
 111 0 122 82 1 122 116 13 123 123 0 20 0 32 0 0 124 0 19 124 124 0 20 0 126 123
 S13 125 125 0 0 0 0 0 0 126 32 19 126 126 0 20 124 0 125 V81 1 127 127 6 20 0 0
 0 0 128 84 24 128 2023_10_22_10_00_51_017211 129 129 130 1 20 19 1 0 0 0 0 81 1
 130 130 6 129 0 0 4 0 131 84 26 131 2023_10_22_10_00_51_0203_11 0 
